<svg width="49" height="49" viewBox="0 0 49 49" fill="none" xmlns="http://www.w3.org/2000/svg">
<g clip-path="url(#clip0_10943_11660)">
<path fill-rule="evenodd" clip-rule="evenodd" d="M39.7234 22.5L28.1837 47.4916L21.5817 40.8149L16.644 35.8259H16.6558L16.644 35.8141L23.6473 36.3374L28.1837 36.6758L39.7155 22.4961H39.7195L39.7116 22.5118L39.7234 22.5Z" fill="#FFD587" stroke="#A96E00" stroke-width="0.393443" stroke-linecap="round" stroke-linejoin="round"/>
<path fill-rule="evenodd" clip-rule="evenodd" d="M28.1837 47.4945L20.3148 43.5601L8.77515 31.8946H8.78695L8.77515 31.8828L16.6558 35.829H16.644L21.5817 40.8178L28.1837 47.4945Z" fill="#FFD587" stroke="#A96E00" stroke-width="0.393443" stroke-linecap="round" stroke-linejoin="round"/>
<path fill-rule="evenodd" clip-rule="evenodd" d="M28.1837 5.11411L26.5155 9.19411L17.9227 30.2315L16.9981 32.4938L16.644 33.3594L14.5469 32.3128L8.77515 29.4249L20.3148 1.17969L28.1837 5.11411Z" fill="#FFD587" stroke="#A96E00" stroke-width="0.393443" stroke-linecap="round" stroke-linejoin="round"/>
<path fill-rule="evenodd" clip-rule="evenodd" d="M23.6473 36.3405L16.644 35.8172L16.6558 35.829L8.77515 31.8828L14.5469 32.3156L16.644 33.3622L22.5968 33.8854L24.3712 34.7746L28.1837 36.6789L23.6473 36.3405Z" fill="#FFD587" stroke="#A96E00" stroke-width="0.393443" stroke-linecap="round" stroke-linejoin="round"/>
<path fill-rule="evenodd" clip-rule="evenodd" d="M39.7154 22.4972L28.1836 36.6769L24.3711 34.7726L22.5967 33.8835L24.6977 34.0684L28.1836 34.3753L38.3068 21.793L39.7154 22.4972Z" fill="#FFD587" stroke="#A96E00" stroke-width="0.393443" stroke-linecap="round" stroke-linejoin="round"/>
<path fill-rule="evenodd" clip-rule="evenodd" d="M39.7234 20.0326L38.307 21.7952L28.1837 34.3775L24.6978 34.0706L22.5968 33.8857L16.644 33.3624L16.9982 32.4969L17.9227 30.2346L26.5155 9.19719L28.1837 5.11719L39.7234 20.0326Z" fill="#FFD587" stroke="#A96E00" stroke-width="0.393443" stroke-linecap="round" stroke-linejoin="round"/>
<path d="M39.7234 22.5L39.7195 22.4961L39.7234 22.5Z" fill="#FFD587"/>
<path d="M39.7234 22.5L39.7195 22.4961" stroke="#A96E00" stroke-width="0.393443" stroke-linecap="round" stroke-linejoin="round"/>
</g>
<defs>
<clipPath id="clip0_10943_11660">
<rect width="48" height="48" fill="white" transform="translate(0.182373 0.394531)"/>
</clipPath>
</defs>
</svg>
