<svg width="49" height="49" viewBox="0 0 49 49" fill="none" xmlns="http://www.w3.org/2000/svg">
<g clip-path="url(#clip0_10943_11641)">
<path d="M37.2239 21.8961V33.2498L45.1415 28.6779V17.3242L37.2239 21.8961Z" fill="#FFD587" stroke="#A96E00" stroke-width="0.475248" stroke-linecap="round" stroke-linejoin="round"/>
<path d="M45.1415 5.96875V15.0507L43.0314 16.2674L37.2239 19.6226V10.5359L45.1415 5.96875Z" fill="#FFD587" stroke="#A96E00" stroke-width="0.475248" stroke-linecap="round" stroke-linejoin="round"/>
<path d="M45.1419 5.97123L37.2243 10.5384L35.6369 9.7447L33.2655 8.56133V6.014L30.0813 4.42192L35.6369 1.21875L45.1419 5.97123Z" fill="#FFD587" stroke="#A96E00" stroke-width="0.475248" stroke-linecap="round" stroke-linejoin="round"/>
<path d="M33.2654 6.01419L30.9033 7.37815L27.7192 9.21736L25.3524 10.5813L23.7604 9.78765L21.3937 8.60429V6.05696L18.2095 4.46488L23.7604 1.26172L30.0812 4.42211L33.2654 6.01419Z" fill="#FFD587" stroke="#A96E00" stroke-width="0.475248" stroke-linecap="round" stroke-linejoin="round"/>
<path d="M13.4759 10.6236V19.7103L11.8886 18.9166L6.08102 16.0129L3.97095 14.9578V5.87109L11.8886 9.82991L13.4759 10.6236Z" fill="#FFD587" stroke="#A96E00" stroke-width="0.475248" stroke-linecap="round" stroke-linejoin="round"/>
<path d="M33.2654 6.01172V15.0937L31.1553 16.3103L30.8987 16.4624L28.7933 17.679L27.7193 18.2969L25.3525 19.6656V10.5788L27.7193 9.21489L30.9034 7.37568L33.2654 6.01172Z" fill="#FFD587" stroke="#A96E00" stroke-width="0.475248" stroke-linecap="round" stroke-linejoin="round"/>
<path d="M21.3935 6.05469V15.1367L19.2834 16.3533L19.0267 16.5054L16.9166 17.722L15.8473 18.3398L13.4758 19.7085V10.6218L15.8473 9.2531L19.0315 7.41865L21.3935 6.05469Z" fill="#FFD587" stroke="#A96E00" stroke-width="0.475248" stroke-linecap="round" stroke-linejoin="round"/>
<path d="M21.3935 17.4102V42.3892L13.4758 46.9563V21.982L15.8473 20.6133L19.0267 18.7789L21.1368 17.5575L21.3935 17.4102Z" fill="#FFD587" stroke="#A96E00" stroke-width="0.475248" stroke-linecap="round" stroke-linejoin="round"/>
<path d="M25.3524 10.5786V19.6653L23.7603 18.8717L21.3935 17.6883V17.4079L19.2834 16.3529L21.3935 15.1362V8.60156L23.7603 9.78493L25.3524 10.5786Z" fill="#FFD587" stroke="#A96E00" stroke-width="0.475248" stroke-linecap="round" stroke-linejoin="round"/>
<path d="M33.2654 17.3672V35.5311L25.3525 40.103V21.9391L27.7193 20.5704L30.8987 18.7359L33.0088 17.5145L33.2654 17.3672Z" fill="#FFD587" stroke="#A96E00" stroke-width="0.475248" stroke-linecap="round" stroke-linejoin="round"/>
<path d="M45.1416 17.3246L37.2239 21.8965L35.6366 21.1028L33.2651 19.9194V17.6477L35.6366 18.8311L37.2239 19.6248L43.0314 16.2695L45.1416 17.3246Z" fill="#FFD587" stroke="#A96E00" stroke-width="0.475248" stroke-linecap="round" stroke-linejoin="round"/>
<path d="M37.2242 10.5356V19.6224L35.6369 18.8287L33.2654 17.6453V17.3649L31.1553 16.3099L33.2654 15.0932V8.55859L35.6369 9.74196L37.2242 10.5356Z" fill="#FFD587" stroke="#A96E00" stroke-width="0.475248" stroke-linecap="round" stroke-linejoin="round"/>
<path d="M33.2652 17.3675L33.0086 17.5149L30.8985 18.7363L27.7191 20.5707L25.3523 21.9394L23.7603 21.1458L21.3936 19.9624V17.6907L23.7603 18.8741L25.3523 19.6677L27.7191 18.299L28.7931 17.6812L30.8985 16.4646L31.1551 16.3125L33.2652 17.3675Z" fill="#FFD587" stroke="#A96E00" stroke-width="0.475248" stroke-linecap="round" stroke-linejoin="round"/>
<path d="M21.3936 6.05717L19.0315 7.42113L15.8474 9.25559L13.4759 10.6243L11.8886 9.83064L3.97095 5.87183L11.8886 1.30469L18.2093 4.46508L21.3936 6.05717Z" fill="#FFD587" stroke="#A96E00" stroke-width="0.475248" stroke-linecap="round" stroke-linejoin="round"/>
<path d="M21.3936 17.4089L21.1369 17.5563L19.0268 18.7777L15.8474 20.6121L13.4759 21.9808L3.97095 17.2284L6.08102 16.0117L11.8886 18.9155L13.4759 19.7091L15.8474 18.3404L16.9167 17.7226L19.0268 16.506L19.2834 16.3539L21.3936 17.4089Z" fill="#FFD587" stroke="#A96E00" stroke-width="0.475248" stroke-linecap="round" stroke-linejoin="round"/>
<path d="M13.4759 21.9829V46.9572L3.97095 42.2047V17.2305L13.4759 21.9829Z" fill="#FFD587" stroke="#A96E00" stroke-width="0.475248" stroke-linecap="round" stroke-linejoin="round"/>
<path d="M25.3523 21.938V40.1019L21.3936 38.1249V19.9609L23.7603 21.1443L25.3523 21.938Z" fill="#FFD587" stroke="#A96E00" stroke-width="0.475248" stroke-linecap="round" stroke-linejoin="round"/>
<path d="M37.2239 21.895V33.2487L33.2651 31.2716V19.918L35.6366 21.1013L37.2239 21.895Z" fill="#FFD587" stroke="#A96E00" stroke-width="0.475248" stroke-linecap="round" stroke-linejoin="round"/>
</g>
<defs>
<clipPath id="clip0_10943_11641">
<rect width="48" height="48" fill="white" transform="translate(0.611328 0.105469)"/>
</clipPath>
</defs>
</svg>
