<svg width="49" height="49" viewBox="0 0 49 49" fill="none" xmlns="http://www.w3.org/2000/svg">
<g clip-path="url(#clip0_10943_11668)">
<path d="M41.7864 29.3984V32.4643L15.0496 47.9017V44.832L41.7864 29.3984Z" fill="#FFD587" stroke="#A96E00" stroke-width="0.387097" stroke-linecap="round" stroke-linejoin="round"/>
<path d="M40.4508 5.625V28.634L40.3618 28.6843L36.4404 30.9488V7.93984L40.4508 5.625Z" fill="#FFD587" stroke="#A96E00" stroke-width="0.387097" stroke-linecap="round" stroke-linejoin="round"/>
<path d="M15.0495 44.8319V47.9016L7.30762 44.0306V40.9609L15.0495 44.8319Z" fill="#FFD587" stroke="#A96E00" stroke-width="0.387097" stroke-linecap="round" stroke-linejoin="round"/>
<path d="M16.3884 31.7889V42.527L12.9162 40.7889L10.0672 39.3644L8.64648 38.656V27.918L12.6568 29.9231L15.3278 31.2586L16.3884 31.7889Z" fill="#FFD587" stroke="#A96E00" stroke-width="0.387097" stroke-linecap="round" stroke-linejoin="round"/>
<path d="M23.0703 20.2616V38.668L20.3994 37.3325V29.4745L19.3387 28.9442L15.3284 26.939V16.3906L19.3387 18.3958L22.0135 19.7351L23.0703 20.2616Z" fill="#FFD587" stroke="#A96E00" stroke-width="0.387097" stroke-linecap="round" stroke-linejoin="round"/>
<path d="M20.3988 29.4764L19.3381 30.088L16.3884 31.7912L15.3278 31.2609L12.6568 29.9255L8.64648 27.9203L12.6568 25.6055L15.3278 26.9409L19.3381 28.9461L20.3988 29.4764Z" fill="#FFD587" stroke="#A96E00" stroke-width="0.387097" stroke-linecap="round" stroke-linejoin="round"/>
<path d="M33.7658 18.6875V32.4952L29.7554 34.8101V21.0023L32.709 19.2991L33.7658 18.6875Z" fill="#FFD587" stroke="#A96E00" stroke-width="0.387097" stroke-linecap="round" stroke-linejoin="round"/>
<path d="M27.0807 17.9414V36.3518L23.0703 38.6666V20.2601L25.4858 18.8627L26.0239 18.553L27.0807 17.9414Z" fill="#FFD587" stroke="#A96E00" stroke-width="0.387097" stroke-linecap="round" stroke-linejoin="round"/>
<path d="M20.3988 29.4766V40.2108L16.3884 42.5295V31.7914L19.3381 30.0881L20.3988 29.4766Z" fill="#FFD587" stroke="#A96E00" stroke-width="0.387097" stroke-linecap="round" stroke-linejoin="round"/>
<path d="M41.7864 29.3959L15.0495 44.8295L7.30762 40.9585L10.0677 39.3636L12.9166 40.7882L16.3889 42.5263L20.3993 40.2075V37.3313L23.0702 38.6669L27.0806 36.352V33.472L29.7554 34.8075L33.7657 32.4926V29.6126L36.4405 30.9481L40.3619 28.6836L41.7864 29.3959Z" fill="#FFD587" stroke="#A96E00" stroke-width="0.387097" stroke-linecap="round" stroke-linejoin="round"/>
<path d="M27.0807 17.9413L26.0239 18.5529L25.4858 18.8626L23.0703 20.26L22.0135 19.7335L19.3387 18.3942L15.3284 16.389L19.3387 14.0703L23.6123 16.2071L26.0239 17.4148L27.0807 17.9413Z" fill="#FFD587" stroke="#A96E00" stroke-width="0.387097" stroke-linecap="round" stroke-linejoin="round"/>
<path d="M33.7653 18.6874L32.7086 19.2989L29.755 21.0022L28.6982 20.4758L27.0802 19.6667V17.9441L26.0234 17.4177L23.6118 16.21L26.0234 14.8164L28.6982 16.1558L32.7086 18.1609L33.7653 18.6874Z" fill="#FFD587" stroke="#A96E00" stroke-width="0.387097" stroke-linecap="round" stroke-linejoin="round"/>
<path d="M36.4404 7.94129V30.9503L33.7656 29.6148V18.6871L32.7088 18.1606L28.6985 16.1555V4.07031L36.4404 7.94129Z" fill="#FFD587" stroke="#A96E00" stroke-width="0.387097" stroke-linecap="round" stroke-linejoin="round"/>
<path d="M29.7554 20.9995V34.8073L27.0806 33.4718V19.6641L28.6986 20.4731L29.7554 20.9995Z" fill="#FFD587" stroke="#A96E00" stroke-width="0.387097" stroke-linecap="round" stroke-linejoin="round"/>
<path d="M40.4508 5.62487L36.4404 7.93971L28.6985 4.06874L32.7088 1.75391L40.4508 5.62487Z" fill="#FFD587" stroke="#A96E00" stroke-width="0.387097" stroke-linecap="round" stroke-linejoin="round"/>
</g>
<defs>
<clipPath id="clip0_10943_11668">
<rect width="48" height="48" fill="white" transform="translate(0.614258 0.980469)"/>
</clipPath>
</defs>
</svg>
