<svg width="49" height="49" viewBox="0 0 49 49" fill="none" xmlns="http://www.w3.org/2000/svg">
<g clip-path="url(#clip0_10943_11684)">
<path d="M38.415 20.4275L34.8518 24.5312L32.6421 27.0739V31.2945C32.6421 33.3918 33.187 34.9875 34.2853 36.0815C34.5621 36.3583 34.8605 36.5874 35.1761 36.7647C36.0972 37.275 37.1783 37.3485 38.415 36.9852C40.0712 35.5582 41.4507 33.6685 42.5448 31.3117C43.6388 28.955 44.1837 26.728 44.1837 24.6307V20.4102L38.415 20.4275ZM37.3729 32.6221L34.4497 30.9571L35.9632 28.302L37.3729 29.1064L40.8713 23.1517L42.3848 24.0166L37.3729 32.6221Z" fill="#FFD587" stroke="#A96E00" stroke-width="0.432432" stroke-linecap="round" stroke-linejoin="round"/>
<path d="M42.3846 24.0172L37.3728 32.6226L34.4495 30.9577L35.963 28.3027L37.3728 29.1069L40.8711 23.1523L42.3846 24.0172Z" fill="#FFD587" stroke="#A96E00" stroke-width="0.432432" stroke-linecap="round" stroke-linejoin="round"/>
<path d="M36.9705 14.6367V18.3643L36.1575 19.2983L35.5392 20.0162L34.0862 21.6854V16.3059L34.4667 16.0897L36.9705 14.6367Z" fill="#FFD587" stroke="#A96E00" stroke-width="0.432432" stroke-linecap="round" stroke-linejoin="round"/>
<path d="M19.6604 24.6328V36.2263L16.7717 37.8912V26.302L16.7804 26.2934L19.6604 24.6328Z" fill="#FFD587" stroke="#A96E00" stroke-width="0.432432" stroke-linecap="round" stroke-linejoin="round"/>
<path d="M28.3176 19.6367L25.4289 21.3059L25.3035 21.2411L22.3586 19.7664L25.243 18.1016L27.1889 19.0745L28.3176 19.6367Z" fill="#FFD587" stroke="#A96E00" stroke-width="0.432432" stroke-linecap="round" stroke-linejoin="round"/>
<path d="M28.3176 19.6367V31.2302L26.7565 32.1297L26.376 32.3502L25.429 32.8951V21.3059L28.3176 19.6367Z" fill="#FFD587" stroke="#A96E00" stroke-width="0.432432" stroke-linecap="round" stroke-linejoin="round"/>
<path d="M29.8311 33.6643L29.442 33.8893L12.4387 43.7055L6.86031 40.9163L3.79004 39.3811L11.1976 35.1043L14.2679 36.6438L16.7716 37.8936L19.6603 36.2287V30.2179L19.8549 30.1055L21.3511 30.8535V30.8579L25.429 32.8947L26.376 32.3498L26.7565 32.1292L28.283 32.8903L29.8311 33.6643Z" fill="#FFD587" stroke="#A96E00" stroke-width="0.432432" stroke-linecap="round" stroke-linejoin="round"/>
<path d="M12.4387 43.7033V47.0114L3.79004 42.687V39.3789L6.86031 40.914L12.4387 43.7033Z" fill="#FFD587" stroke="#A96E00" stroke-width="0.432432" stroke-linecap="round" stroke-linejoin="round"/>
<path d="M25.4289 21.3051V32.8943L21.3511 30.8576V30.8532L19.8549 30.1051L19.6603 30.01V24.6348L16.7803 23.1991V22.9829L19.6689 21.3181L22.3587 19.7656L25.3035 21.2403L25.4289 21.3051Z" fill="#FFD587" stroke="#A96E00" stroke-width="0.432432" stroke-linecap="round" stroke-linejoin="round"/>
<path d="M19.6603 24.6328L16.7803 26.2933L16.7716 26.302L13.697 24.7668L16.5813 23.0977L16.7803 23.1971L19.6603 24.6328Z" fill="#FFD587" stroke="#A96E00" stroke-width="0.432432" stroke-linecap="round" stroke-linejoin="round"/>
<path d="M16.7717 26.3028V37.8921L14.2679 36.6423L11.1976 35.1029L8.12305 33.5677V23.332L11.0117 24.7764L12.4387 25.4899L13.6971 24.7677L16.7717 26.3028Z" fill="#FFD587" stroke="#A96E00" stroke-width="0.432432" stroke-linecap="round" stroke-linejoin="round"/>
<path d="M12.4387 22.1759V25.4883L11.0117 24.7748L8.12299 23.3305L3.79004 21.164V17.8516L6.86463 19.391L9.94358 20.9262L11.0117 21.4623L12.4387 22.1759Z" fill="#FFD587" stroke="#A96E00" stroke-width="0.432432" stroke-linecap="round" stroke-linejoin="round"/>
<path d="M26.8733 5.56653L22.9079 10.1286L17.1306 16.7751L16.9014 17.0389L16.7803 17.1773L13.1349 21.3719L12.4387 22.1762L11.0117 21.4627L9.94358 20.9265L6.86463 19.3914L3.79004 17.8519L18.2246 1.24219L26.8733 5.56653Z" fill="#FFD587" stroke="#A96E00" stroke-width="0.432432" stroke-linecap="round" stroke-linejoin="round"/>
<path d="M41.3035 5.51574L30.8343 5.55465L26.8733 5.56763L18.2246 1.24329L32.6549 1.19141L41.3035 5.51574Z" fill="#FFD587" stroke="#A96E00" stroke-width="0.432432" stroke-linecap="round" stroke-linejoin="round"/>
<path d="M44.1877 20.4073L38.4148 20.4246L36.1575 19.296L36.9704 18.3619V16.8008L44.1877 20.4073Z" fill="#FFD587" stroke="#A96E00" stroke-width="0.432432" stroke-linecap="round" stroke-linejoin="round"/>
<path d="M30.3369 36.6824L12.4429 47.0132V43.7051L29.4461 33.8889L29.831 33.6641C29.844 33.8111 29.8569 33.9581 29.8742 34.1008C29.9131 34.4987 29.9607 34.8749 30.0126 35.2381C30.0861 35.7354 30.1942 36.2154 30.3369 36.6824Z" fill="#FFD587" stroke="#A96E00" stroke-width="0.432432" stroke-linecap="round" stroke-linejoin="round"/>
<path d="M29.8699 34.1037C29.8526 33.9567 29.8396 33.8096 29.8266 33.6626L28.2785 32.8886L26.7563 32.1275L28.3131 31.228V24.9102L30.1553 25.8312L32.6418 27.0723V31.2929C32.6418 33.3902 33.1866 34.9859 34.285 36.0799C34.5618 36.3567 34.8601 36.5858 35.1758 36.7631L29.8699 34.1037Z" fill="#FFD587" stroke="#A96E00" stroke-width="0.432432" stroke-linecap="round" stroke-linejoin="round"/>
<path d="M38.4147 20.4256L34.8514 24.5294L32.646 27.0721L30.1595 25.831L28.3174 24.9099V19.6342L27.1887 19.0721L27.699 18.4883L31.3487 20.3131L32.9141 21.0958L34.086 21.6839L35.539 20.0148L36.1574 19.2969L38.4147 20.4256Z" fill="#FFD587" stroke="#A96E00" stroke-width="0.432432" stroke-linecap="round" stroke-linejoin="round"/>
<path d="M34.0864 16.3051V21.6845L32.9145 21.0964L31.3491 20.3137L27.6993 18.4889L26.0215 17.65L31.0161 14.7656L33.6539 16.0889L34.0864 16.3051Z" fill="#FFD587" stroke="#A96E00" stroke-width="0.432432" stroke-linecap="round" stroke-linejoin="round"/>
<path d="M36.9705 14.6367L34.4667 16.0897L34.0861 16.3059L33.6537 16.0897L31.0159 14.7664L33.9045 13.1016L36.9705 14.6367Z" fill="#FFD587" stroke="#A96E00" stroke-width="0.432432" stroke-linecap="round" stroke-linejoin="round"/>
<path d="M41.3034 5.51562V8.82806L33.9044 13.1005L31.0158 14.7653L26.0212 17.6497L25.2428 18.0994L22.3585 19.7642L19.6687 21.3167L16.7801 22.9815L16.5812 23.0983L13.6969 24.7675L12.4385 25.4897V22.1772L13.1347 21.3729L16.7801 17.1783L16.9012 17.04L17.1304 16.7762L22.9077 10.1297L26.8731 5.56752L30.8342 5.55454L41.3034 5.51562Z" fill="#FFD587" stroke="#A96E00" stroke-width="0.432432" stroke-linecap="round" stroke-linejoin="round"/>
</g>
<defs>
<clipPath id="clip0_10943_11684">
<rect width="48" height="48" fill="white" transform="translate(0.0754395 0.179688)"/>
</clipPath>
</defs>
</svg>
