<svg width="22" height="22" viewBox="0 0 22 22" fill="none" xmlns="http://www.w3.org/2000/svg">
<g clip-path="url(#clip0_11888_8590)">
<path d="M11.2848 21.2278C17.1445 21.2278 21.8948 16.4776 21.8948 10.6178C21.8948 4.75807 17.1445 0.0078125 11.2848 0.0078125C5.42506 0.0078125 0.674805 4.75807 0.674805 10.6178C0.674805 16.4776 5.42506 21.2278 11.2848 21.2278Z" fill="#0A0A0A"/>
<path d="M15.9783 6.30884C15.1001 5.90579 14.1734 5.6184 13.2213 5.45386C13.2126 5.45221 13.2037 5.45334 13.1957 5.4571C13.1877 5.46085 13.1811 5.46704 13.1769 5.47476C13.0505 5.70391 12.9357 5.93929 12.833 6.18001C11.8067 6.02416 10.7628 6.02416 9.73661 6.18001C9.63345 5.9387 9.51705 5.70326 9.38795 5.47476C9.38352 5.4672 9.37691 5.46115 9.36897 5.45742C9.36104 5.45369 9.35216 5.45245 9.34351 5.45386C8.39168 5.61814 7.46527 5.90554 6.58759 6.30884C6.58004 6.31202 6.57365 6.31747 6.56934 6.32445C4.81363 8.94783 4.33271 11.5067 4.56867 14.0332C4.56935 14.0394 4.57126 14.0454 4.57431 14.0509C4.57735 14.0564 4.58146 14.0611 4.5864 14.065C5.60878 14.8223 6.75241 15.4004 7.96846 15.7747C7.97704 15.7772 7.9862 15.7771 7.99471 15.7743C8.00323 15.7715 8.01068 15.7662 8.01608 15.759C8.27719 15.4036 8.50856 15.0272 8.70783 14.6337C8.71055 14.6283 8.7121 14.6224 8.71237 14.6164C8.71264 14.6103 8.71163 14.6043 8.70941 14.5987C8.70719 14.5931 8.7038 14.588 8.69947 14.5838C8.69514 14.5795 8.68997 14.5763 8.68429 14.5742C8.31939 14.4348 7.9661 14.2668 7.62774 14.0716C7.6216 14.068 7.61644 14.0629 7.61273 14.0568C7.60901 14.0508 7.60685 14.0439 7.60643 14.0367C7.60601 14.0296 7.60735 14.0225 7.61033 14.0161C7.61331 14.0096 7.61783 14.0039 7.62351 13.9996C7.69441 13.9467 7.76556 13.8912 7.83329 13.8351C7.8393 13.8302 7.84657 13.827 7.85428 13.826C7.86199 13.8249 7.86984 13.8261 7.87693 13.8293C10.0935 14.8414 12.4933 14.8414 14.6837 13.8293C14.6908 13.8259 14.6988 13.8245 14.7066 13.8255C14.7145 13.8264 14.722 13.8296 14.7281 13.8346C14.7958 13.8904 14.867 13.9465 14.9397 13.9996C14.9454 14.0039 14.95 14.0095 14.953 14.016C14.956 14.0224 14.9574 14.0295 14.9571 14.0366C14.9567 14.0437 14.9546 14.0506 14.9509 14.0567C14.9472 14.0628 14.9421 14.0679 14.936 14.0716C14.5981 14.2686 14.2441 14.4368 13.8779 14.5742C13.8722 14.5764 13.867 14.5797 13.8627 14.584C13.8583 14.5883 13.855 14.5935 13.8528 14.5992C13.8506 14.6049 13.8497 14.611 13.85 14.6171C13.8504 14.6232 13.852 14.6291 13.8549 14.6345C14.0575 15.0258 14.2885 15.4018 14.5461 15.7593C14.5513 15.7667 14.5587 15.7722 14.5673 15.7751C14.5758 15.778 14.5851 15.7781 14.5937 15.7754C15.8114 15.4023 16.9565 14.8241 17.9798 14.0658C17.9848 14.0621 17.9889 14.0575 17.992 14.0521C17.995 14.0467 17.9969 14.0407 17.9975 14.0346C18.28 11.113 17.5245 8.5751 15.995 6.3255C15.9915 6.31816 15.9856 6.31226 15.9783 6.30884ZM9.0385 12.495C8.37108 12.495 7.82165 11.8823 7.82165 11.13C7.82165 10.3776 8.36077 9.76497 9.0385 9.76497C9.72179 9.76497 10.2665 10.3829 10.2554 11.13C10.2559 11.8823 9.7165 12.495 9.0385 12.495ZM13.539 12.495C12.8716 12.495 12.3222 11.8823 12.3222 11.13C12.3222 10.3776 12.8613 9.76497 13.539 9.76497C14.2223 9.76497 14.767 10.3829 14.7559 11.13C14.7561 11.8823 14.2223 12.495 13.539 12.495Z" fill="white"/>
</g>
<defs>
<clipPath id="clip0_11888_8590">
<rect width="21.22" height="21.22" fill="white" transform="translate(0.674805 0.0078125)"/>
</clipPath>
</defs>
</svg>
