<svg width="22" height="22" viewBox="0 0 22 22" fill="none" xmlns="http://www.w3.org/2000/svg">
<path d="M21.5538 10.5522C21.529 8.5178 20.9269 6.53291 19.8183 4.8313C18.7098 3.12968 17.1412 1.78219 15.2972 0.947525C13.453 0.112864 11.4102 -0.174204 9.40937 0.12011C7.40857 0.414437 5.53298 1.27788 4.00355 2.6088C2.4741 3.93971 1.35449 5.68264 0.776556 7.63232C0.198639 9.58202 0.186464 11.6572 0.741489 13.6137C1.29651 15.5701 2.39561 17.3261 3.90934 18.6751C5.42306 20.0241 7.28839 20.9098 9.28562 21.2278V13.6615H6.63306V10.5522H9.28562V8.19019C9.22422 7.641 9.28337 7.08492 9.45897 6.56123C9.63457 6.03754 9.92224 5.559 10.3017 5.1594C10.6811 4.75978 11.1431 4.44884 11.655 4.24853C12.167 4.0482 12.7165 3.96337 13.2645 4.00004C14.06 4.01099 14.8536 4.08237 15.6385 4.21355V6.88246H14.3123C14.0836 6.85344 13.8512 6.8765 13.6327 6.94993C13.414 7.02337 13.2145 7.1453 13.049 7.30671C12.8834 7.46813 12.7561 7.66491 12.6764 7.88246C12.5966 8.10011 12.5665 8.33297 12.5881 8.56383V10.5789H15.5324L15.055 13.6881H12.6013V21.1611C15.1079 20.7622 17.3894 19.4726 19.0319 17.5262C20.6743 15.5797 21.569 13.1055 21.5538 10.5522Z" fill="#0A0A0A"/>
</svg>
