<svg width="22" height="22" viewBox="0 0 22 22" fill="none" xmlns="http://www.w3.org/2000/svg">
<path fill-rule="evenodd" clip-rule="evenodd" d="M11.0635 0.0078125C16.9241 0.0078125 21.6748 4.87834 21.6748 10.8875C21.6748 15.6934 18.6378 19.7703 14.4241 21.2103C13.8861 21.3174 13.6951 20.9777 13.6951 20.688C13.6951 20.3293 13.7078 19.1579 13.7078 17.702C13.7078 16.6876 13.3683 16.0255 12.9873 15.688C15.3505 15.4185 17.8335 14.4984 17.8335 10.3197C17.8335 9.13119 17.4218 8.16137 16.7405 7.39947C16.8509 7.12464 17.2149 6.01802 16.6365 4.5197C16.6365 4.5197 15.7473 4.22817 13.7216 5.63524C12.8738 5.39436 11.9654 5.27316 11.0635 5.26892C10.1615 5.27316 9.25425 5.39436 8.40746 5.63524C6.37964 4.22817 5.48829 4.5197 5.48829 4.5197C4.91209 6.01802 5.27606 7.12464 5.38536 7.39947C4.70729 8.16137 4.29239 9.13119 4.29239 10.3197C4.29239 14.4878 6.77014 15.422 9.12691 15.6968C8.82343 15.9685 8.54859 16.4477 8.45309 17.1512C7.84825 17.4292 6.31172 17.9104 5.36519 16.2476C5.36519 16.2476 4.80385 15.2022 3.73848 15.1258C3.73848 15.1258 2.70387 15.1121 3.66632 15.787C3.66632 15.787 4.36136 16.1212 4.84418 17.3787C4.84418 17.3787 5.46707 19.3205 8.41914 18.6626C8.42444 19.572 8.43399 20.4291 8.43399 20.688C8.43399 20.9756 8.23874 21.3121 7.70923 21.2113C3.49229 19.7735 0.452148 15.6945 0.452148 10.8875C0.452148 4.87834 5.2039 0.0078125 11.0635 0.0078125Z" fill="#0A0A0A"/>
</svg>
