<svg width="23" height="22" viewBox="0 0 23 22" fill="none" xmlns="http://www.w3.org/2000/svg">
<path d="M11.5045 21.22C17.3643 21.22 22.1145 16.4697 22.1145 10.61C22.1145 4.75026 17.3643 0 11.5045 0C5.64479 0 0.894531 4.75026 0.894531 10.61C0.894531 16.4697 5.64479 21.22 11.5045 21.22Z" fill="#0A0A0A"/>
<path d="M14.6874 5.4375H8.32141C7.2162 5.4375 6.33203 6.32166 6.33203 7.42688V13.7929C6.33203 14.8981 7.2162 15.7823 8.32141 15.7823H14.6874C15.7926 15.7823 16.6768 14.8981 16.6768 13.7929V7.42687C16.6768 6.32166 15.7926 5.4375 14.6874 5.4375ZM15.2621 6.63113H15.4832V8.39945H13.7148V6.63113H15.2621ZM10.0455 9.54888C10.355 9.10679 10.9297 8.79733 11.5044 8.79733C12.0791 8.79733 12.6538 9.10679 12.9633 9.54888C13.1843 9.85834 13.317 10.212 13.317 10.6099C13.317 11.6267 12.477 12.4224 11.5044 12.4224C10.5318 12.4224 9.69188 11.6267 9.69188 10.6099C9.69187 10.212 9.8245 9.85834 10.0455 9.54888ZM15.66 13.7929C15.66 14.3234 15.2179 14.7655 14.6874 14.7655H8.32141C7.79091 14.7655 7.34882 14.3234 7.34882 13.7929V9.54888H8.89611C8.76349 9.85834 8.67508 10.2562 8.67508 10.6099C8.67508 12.1572 9.95712 13.4392 11.5044 13.4392C13.0517 13.4392 14.3337 12.1572 14.3337 10.6099C14.3337 10.2562 14.2453 9.85833 14.1127 9.54888H15.66L15.66 13.7929Z" fill="white"/>
</svg>
