<svg width="22" height="22" viewBox="0 0 22 22" fill="none" xmlns="http://www.w3.org/2000/svg">
<g clip-path="url(#clip0_11888_8595)">
<path d="M10.7243 0.0078125C4.86389 0.0078125 0.114258 4.75745 0.114258 10.6178C0.114258 16.4782 4.86389 21.2278 10.7243 21.2278C16.5846 21.2278 21.3343 16.4782 21.3343 10.6178C21.3343 4.75745 16.5846 0.0078125 10.7243 0.0078125ZM7.75677 15.0566H5.68865V8.43779H7.75677V15.0566ZM6.66676 7.60888H6.65018C5.90002 7.60888 5.41511 7.10325 5.41511 6.46085C5.41511 5.80601 5.9166 5.31281 6.67919 5.31281C7.44179 5.31281 7.91012 5.80601 7.9267 6.46085C7.93084 7.09911 7.44593 7.60888 6.66676 7.60888ZM16.0293 15.0566H13.6835V11.6332C13.6835 10.738 13.3187 10.1246 12.5106 10.1246C11.893 10.1246 11.549 10.5391 11.3915 10.9369C11.3335 11.0779 11.3418 11.2768 11.3418 11.4799V15.0566H9.01671C9.01671 15.0566 9.04572 8.98901 9.01671 8.43779H11.3418V9.47807C11.4786 9.02217 12.2204 8.37562 13.4058 8.37562C14.8771 8.37562 16.0293 9.32886 16.0293 11.3763V15.0566Z" fill="#0A0A0A"/>
</g>
<defs>
<clipPath id="clip0_11888_8595">
<rect width="21.22" height="21.22" fill="white" transform="translate(0.114258 0.0078125)"/>
</clipPath>
</defs>
</svg>
