<svg width="273" height="49" viewBox="0 0 273 49" fill="none" xmlns="http://www.w3.org/2000/svg">
<path d="M123.77 6.32585V0.657068H156.972V6.32585H143.34V47.8969H137.402V6.32585H123.77Z" fill="black"/>
<path d="M151.237 30.8906C151.237 21.6451 157.378 13.3443 167.568 13.3443C177.758 13.3443 183.9 21.6451 183.9 30.8906C183.9 40.1361 177.758 48.4368 167.568 48.4368C157.378 48.4368 151.237 40.1361 151.237 30.8906ZM157.04 30.8906C157.04 37.1667 160.617 43.3079 167.568 43.3079C174.519 43.3079 178.096 37.1667 178.096 30.8906C178.096 24.6144 174.519 18.4732 167.568 18.4732C160.617 18.4732 157.04 24.6144 157.04 30.8906Z" fill="black"/>
<path d="M187.072 0.117188H192.741V28.1237L205.968 13.8842H213.256L198.814 29.4734L214.336 47.8969H207.115L192.741 30.8231V47.8969H187.072V0.117188Z" fill="black"/>
<path d="M241.698 29.4734V32.1053H216.728C217.066 38.3814 220.17 43.3079 226.311 43.3079C231.305 43.3079 233.869 41.0134 235.759 36.8293L240.753 38.9888C237.581 45.6024 233.33 48.4368 226.311 48.4368C215.986 48.4368 210.924 40.0011 210.924 30.8906C210.924 21.78 215.986 13.3443 226.311 13.3443C236.366 13.3443 241.698 21.0377 241.698 29.4734ZM226.311 18.4732C221.047 18.4732 218.078 22.05 217.066 26.9764H235.759C234.747 22.1174 231.777 18.4732 226.311 18.4732Z" fill="black"/>
<path d="M272.236 23.9396V47.8969H266.568V25.4242C266.568 20.7677 264.476 18.4732 260.696 18.4732C255.635 18.4732 250.979 24.2095 250.979 33.6575V47.8969H245.31V13.8842H250.979V20.1604C253.476 15.7738 257.525 13.3443 262.249 13.3443C268.457 13.3443 272.236 17.191 272.236 23.9396Z" fill="black"/>
<path d="M29.9421 8.68784L22.8561 13.2094C21.034 9.70012 19.077 8.21544 16.3101 8.21544C13.7456 8.21544 11.7885 10.0375 11.7885 12.5345C11.7885 20.7677 31.9667 19.688 31.9667 33.725C31.9667 42.9705 25.893 48.4368 16.8499 48.4368C8.27928 48.4368 2.07062 42.4306 0.585938 35.2096L7.67191 30.7556C9.08911 35.817 11.9235 40.3385 17.0524 40.3385C20.6966 40.3385 23.1936 38.5164 23.1936 34.1974C23.1936 26.369 3.42033 27.9212 3.42033 12.9394C3.42033 5.78597 8.88665 0.117188 16.3101 0.117188C22.5862 0.117188 27.3777 3.22152 29.9421 8.68784Z" fill="black"/>
<path d="M33.2658 0.117188H41.634V47.8969H33.2658V0.117188Z" fill="black"/>
<path d="M51.4457 24.412L44.3598 22.7923C45.4395 17.191 50.366 13.3443 57.317 13.3443C65.4152 13.3443 71.6239 16.7186 71.6239 27.5838V47.8969H64.7404L63.8631 43.5778C61.5011 46.4797 58.2618 48.4368 53.4028 48.4368C47.5991 48.4368 43.0775 44.8601 43.0775 38.1115C43.0775 31.363 49.0163 26.9764 57.5869 26.9764H63.2557V25.4917C63.2557 21.7125 60.4213 20.4978 57.317 20.4978C54.955 20.4978 52.5255 21.2401 51.4457 24.412ZM51.8506 37.9765C51.8506 39.5962 52.9979 41.2833 55.3599 41.2833C59.2066 41.2833 63.2557 38.6514 63.2557 34.2648V33.59H57.6544C54.0777 33.59 51.8506 34.9397 51.8506 37.9765Z" fill="black"/>
<path d="M92.0403 40.4735L93.9974 47.222C92.1078 48.0994 90.2857 48.4368 88.4636 48.4368C80.7703 48.4368 75.9788 44.3202 75.9788 35.8845V21.0377H70.7149V13.8842H75.9788V5.38105L84.347 0.117188V13.8842H93.3226V21.0377H84.347V35.7495C84.347 39.9336 85.9667 41.2833 88.801 41.2833C89.9483 41.2833 90.8931 41.0809 92.0403 40.4735Z" fill="black"/>
<path d="M124.617 30.1482V33.59H101.199C101.402 37.3692 104.034 41.2833 109.23 41.2833C113.077 41.2833 115.439 39.5287 117.463 36.0195L124.212 38.5164C121.58 44.5226 116.991 48.4368 108.758 48.4368C97.0828 48.4368 92.4263 38.9213 92.4263 30.8906C92.4263 22.8598 97.0828 13.3443 108.758 13.3443C120.095 13.3443 124.617 22.7248 124.617 30.1482ZM108.758 20.4978C104.506 20.4978 102.009 23.7371 101.402 26.9764H116.046C115.304 23.6021 113.212 20.4978 108.758 20.4978Z" fill="black"/>
</svg>
