<svg width="275" height="40" viewBox="0 0 275 40" fill="none" xmlns="http://www.w3.org/2000/svg">
<path d="M118.806 23.0076H110.206V39.5459H105.354V0.956642H118.806C126.027 0.956642 130.272 5.25658 130.272 11.9821C130.272 18.7077 126.027 23.0076 118.806 23.0076ZM119.081 18.3769C123.05 18.3769 125.256 16.0616 125.256 11.9821C125.256 7.9027 123.05 5.58735 119.081 5.58735H110.206V18.3769H119.081Z" fill="black"/>
<path d="M148.581 12.1475L147.644 16.2821C146.652 15.7859 145.549 15.5103 144.392 15.5103C140.588 15.5103 136.619 19.9756 136.619 29.0165V39.5459H131.988V11.7616H136.619V16.5026C138.272 13.4154 141.69 11.3206 144.778 11.3206C146.321 11.3206 147.754 11.7065 148.581 12.1475Z" fill="black"/>
<path d="M146.627 25.6537C146.627 18.1013 151.644 11.3206 159.968 11.3206C168.292 11.3206 173.309 18.1013 173.309 25.6537C173.309 33.2062 168.292 39.9869 159.968 39.9869C151.644 39.9869 146.627 33.2062 146.627 25.6537ZM151.368 25.6537C151.368 30.7806 154.29 35.7972 159.968 35.7972C165.646 35.7972 168.568 30.7806 168.568 25.6537C168.568 20.5269 165.646 15.5103 159.968 15.5103C154.29 15.5103 151.368 20.5269 151.368 25.6537Z" fill="black"/>
<path d="M172.422 15.9513V11.7616H177.218V3.43738L181.849 0.515625V11.7616H189.126V15.9513H181.849V31.2216C181.849 34.1985 183.227 35.7972 185.543 35.7972C186.755 35.7972 187.693 35.5767 188.685 34.9152L189.787 38.9395C188.464 39.7113 186.866 39.9869 185.267 39.9869C180.581 39.9869 177.218 37.1203 177.218 30.8357V15.9513H172.422Z" fill="black"/>
<path d="M189.409 25.6537C189.409 18.1013 194.426 11.3206 202.75 11.3206C211.074 11.3206 216.091 18.1013 216.091 25.6537C216.091 33.2062 211.074 39.9869 202.75 39.9869C194.426 39.9869 189.409 33.2062 189.409 25.6537ZM194.15 25.6537C194.15 30.7806 197.072 35.7972 202.75 35.7972C208.428 35.7972 211.35 30.7806 211.35 25.6537C211.35 20.5269 208.428 15.5103 202.75 15.5103C197.072 15.5103 194.15 20.5269 194.15 25.6537Z" fill="black"/>
<path d="M236.712 30.6703L240.736 32.3242C238.476 37.5061 234.837 39.9869 229.104 39.9869C220.614 39.9869 216.48 33.096 216.48 25.6537C216.48 18.2115 220.614 11.3206 229.104 11.3206C234.837 11.3206 238.476 13.8013 240.736 18.9833L236.712 20.6371C235.278 17.2744 232.908 15.5103 229.104 15.5103C223.702 15.5103 221.221 20.0859 221.221 25.6537C221.221 31.2216 223.702 35.7972 229.104 35.7972C232.908 35.7972 235.278 34.0331 236.712 30.6703Z" fill="black"/>
<path d="M241.397 25.6537C241.397 18.1013 246.414 11.3206 254.738 11.3206C263.062 11.3206 268.079 18.1013 268.079 25.6537C268.079 33.2062 263.062 39.9869 254.738 39.9869C246.414 39.9869 241.397 33.2062 241.397 25.6537ZM246.138 25.6537C246.138 30.7806 249.06 35.7972 254.738 35.7972C260.416 35.7972 263.338 30.7806 263.338 25.6537C263.338 20.5269 260.416 15.5103 254.738 15.5103C249.06 15.5103 246.138 20.5269 246.138 25.6537Z" fill="black"/>
<path d="M270.345 0.515625H274.975V39.5459H270.345V0.515625Z" fill="black"/>
<path d="M24.1875 7.51681L18.3991 11.2104C16.9107 8.34372 15.312 7.13092 13.0517 7.13092C10.9569 7.13092 9.35819 8.61936 9.35819 10.6591C9.35819 17.3846 25.8413 16.5026 25.8413 27.9691C25.8413 35.5216 20.8798 39.9869 13.4927 39.9869C6.49156 39.9869 1.41984 35.0805 0.207031 29.1819L5.99541 25.5435C7.15309 29.6781 9.46844 33.3716 13.6581 33.3716C16.635 33.3716 18.6747 31.8832 18.6747 28.355C18.6747 21.9602 2.52238 23.2281 2.52238 10.9898C2.52238 5.14633 6.98771 0.515625 13.0517 0.515625C18.1786 0.515625 22.0926 3.05149 24.1875 7.51681Z" fill="black"/>
<path d="M26.9025 0.515625H33.7383V39.5459H26.9025V0.515625Z" fill="black"/>
<path d="M41.7533 20.3615L35.9649 19.0385C36.847 14.4629 40.8713 11.3206 46.5494 11.3206C53.1647 11.3206 58.2364 14.077 58.2364 22.9525V39.5459H52.6134L51.8968 36.0177C49.9673 38.3882 47.3212 39.9869 43.352 39.9869C38.6111 39.9869 34.9175 37.0651 34.9175 31.5524C34.9175 26.0396 39.7687 22.4564 46.7699 22.4564H51.4006V21.2435C51.4006 18.1564 49.0853 17.1641 46.5494 17.1641C44.6199 17.1641 42.6354 17.7705 41.7533 20.3615ZM42.0841 31.4421C42.0841 32.7652 43.0213 34.1434 44.9507 34.1434C48.093 34.1434 51.4006 31.9934 51.4006 28.4101V27.8588H46.825C43.9033 27.8588 42.0841 28.9614 42.0841 31.4421Z" fill="black"/>
<path d="M74.9142 33.4818L76.5129 38.9946C74.9693 39.7112 73.4809 39.9869 71.9925 39.9869C65.7079 39.9869 61.7939 36.6241 61.7939 29.7332V17.6051H57.4939V11.7616H61.7939V4.81556L68.6297 0.515625V11.7616H75.9616V17.6051H68.6297V29.6229C68.6297 33.0408 69.9527 34.1434 72.2681 34.1434C73.2053 34.1434 73.977 33.978 74.9142 33.4818Z" fill="black"/>
<path d="M101.525 25.0473V27.8588H82.396C82.5614 30.946 84.7114 34.1434 88.9562 34.1434C92.0985 34.1434 94.0279 32.7101 95.6818 29.8434L101.195 31.8832C99.0445 36.7895 95.2959 39.9869 88.5703 39.9869C79.0333 39.9869 75.2295 32.2139 75.2295 25.6537C75.2295 19.0936 79.0333 11.3206 88.5703 11.3206C97.8317 11.3206 101.525 18.9833 101.525 25.0473ZM88.5703 17.1641C85.0973 17.1641 83.0576 19.8102 82.5614 22.4564H94.5241C93.9177 19.7 92.2087 17.1641 88.5703 17.1641Z" fill="black"/>
</svg>
