<svg width="49" height="48" viewBox="0 0 49 48" fill="none" xmlns="http://www.w3.org/2000/svg">
<g clip-path="url(#clip0_11429_11388)">
<path d="M18.8676 39.2812V45.4839L16.1655 47.0481V43.9446L17.3904 41.8343L18.8676 39.2812Z" fill="#AEE0FF" stroke="#076993" stroke-width="0.413793" stroke-linecap="round" stroke-linejoin="round"/>
<path d="M40.4921 14.3906V33.003L37.79 34.563V19.0541L40.4921 14.3906Z" fill="#AEE0FF" stroke="#076993" stroke-width="0.413793" stroke-linecap="round" stroke-linejoin="round"/>
<path d="M40.4924 5.07812V9.46019L38.2786 13.2795L35.5766 17.943L32.858 22.6312L32.2166 23.7402L31.0331 25.7802L29.5145 24.9154L26.8124 23.3761L25.6249 22.6974L24.5738 24.5098L24.1062 25.3167L23.3697 26.5871L22.0621 28.8464L21.4042 29.9802L19.36 33.5098L18.7021 34.6395L16.6538 38.1733L16.1655 39.0174V34.6354L17.3904 32.525L18.7021 30.2574L20.0924 27.8616L21.3008 25.7761L21.4001 25.6023L25.6249 18.3154L29.5145 20.5333L31.0331 21.3981L32.2166 19.3581L33.607 16.9581L36.3089 12.2947L40.4924 5.07812Z" fill="#AEE0FF" stroke="#076993" stroke-width="0.413793" stroke-linecap="round" stroke-linejoin="round"/>
<path d="M16.1655 43.9425V47.046L7.88965 42.9081V39.8047L10.5917 41.1578L16.1655 43.9425Z" fill="#AEE0FF" stroke="#076993" stroke-width="0.413793" stroke-linecap="round" stroke-linejoin="round"/>
<path d="M24.2758 29.9605L24.1061 30.2543L21.5696 34.6198L21.4041 34.5371L19.3599 33.515L21.4041 29.9854L22.062 28.8516L24.1061 29.8778L24.2758 29.9605Z" fill="#AEE0FF" stroke="#076993" stroke-width="0.413793" stroke-linecap="round" stroke-linejoin="round"/>
<path d="M35.0882 23.7501L32.382 28.4135L32.2165 28.3307L29.5144 26.9818L26.8123 25.6287L24.5737 24.5114L25.6248 22.699L26.8123 23.3776L29.5144 24.917L31.033 25.7818L32.2165 23.7418L32.8579 22.6328L35.0882 23.7501Z" fill="#AEE0FF" stroke="#076993" stroke-width="0.413793" stroke-linecap="round" stroke-linejoin="round"/>
<path d="M40.4923 5.08326L36.3088 12.2998L33.6068 16.9633L32.2164 19.3633L31.0329 21.4033L29.5143 20.5384L25.6247 18.3205L22.9268 16.9715L32.2164 0.945312L40.4923 5.08326Z" fill="#AEE0FF" stroke="#076993" stroke-width="0.413793" stroke-linecap="round" stroke-linejoin="round"/>
<path d="M25.6249 18.3176L21.4001 25.6045L21.3008 25.7783L20.0924 27.8638L18.7021 30.2597L17.3903 32.5273L16.1655 34.6376L16 34.5549L13.2938 33.2018L9.85931 31.4845L7.88965 30.4997L17.349 14.1797L25.6249 18.3176Z" fill="#AEE0FF" stroke="#076993" stroke-width="0.413793" stroke-linecap="round" stroke-linejoin="round"/>
<path d="M16.1655 34.6379V39.02L15.3379 38.6062L13.2938 37.5841L10.5917 36.2352L10.1035 35.9869L7.88965 34.8821V30.5L9.85931 31.4848L13.2938 33.2021L16 34.5552L16.1655 34.6379Z" fill="#AEE0FF" stroke="#076993" stroke-width="0.413793" stroke-linecap="round" stroke-linejoin="round"/>
<path d="M21.5697 34.6205V43.9266L18.8676 42.5776V39.2839L16.6538 38.1791L18.7022 34.6453L19.36 33.5156L21.4042 34.5377L21.5697 34.6205Z" fill="#AEE0FF" stroke="#076993" stroke-width="0.413793" stroke-linecap="round" stroke-linejoin="round"/>
<path d="M18.8676 39.2782L17.3903 41.8312L16.1655 43.9415L10.5917 41.1568L7.88965 39.8037L10.1035 35.9844L10.5917 36.2327L13.2938 37.5816L15.3379 38.6037L16.1655 39.0175L16.6537 38.1733L18.8676 39.2782Z" fill="#AEE0FF" stroke="#076993" stroke-width="0.413793" stroke-linecap="round" stroke-linejoin="round"/>
<path d="M26.9779 28.3979V40.8075L24.2758 39.4586V29.962L24.1061 29.8793L22.062 28.8531L23.3697 26.5938L24.1061 26.962L26.8124 28.3151L26.9779 28.3979Z" fill="#AEE0FF" stroke="#076993" stroke-width="0.413793" stroke-linecap="round" stroke-linejoin="round"/>
<path d="M24.2755 29.9609V42.3663L21.5693 43.9263V34.6202L24.1058 30.2547L24.2755 29.9609Z" fill="#AEE0FF" stroke="#076993" stroke-width="0.413793" stroke-linecap="round" stroke-linejoin="round"/>
<path d="M32.3823 28.4177V37.6867L29.6803 36.3377V29.9777L29.5148 29.8825L26.9783 28.397L26.8127 28.3142L24.1064 26.9611V25.3225L24.5741 24.5156L26.8127 25.6329L29.5148 26.986L32.2168 28.3349L32.3823 28.4177Z" fill="#AEE0FF" stroke="#076993" stroke-width="0.413793" stroke-linecap="round" stroke-linejoin="round"/>
<path d="M29.6801 29.9713V39.2403L26.978 40.8003V28.3906L29.5145 29.8761L29.6801 29.9713Z" fill="#AEE0FF" stroke="#076993" stroke-width="0.413793" stroke-linecap="round" stroke-linejoin="round"/>
<path d="M40.4924 14.3861L37.7904 19.0495L35.5767 17.9447L38.2786 13.2812L40.4924 14.3861Z" fill="#AEE0FF" stroke="#076993" stroke-width="0.413793" stroke-linecap="round" stroke-linejoin="round"/>
<path d="M37.7903 19.0501V34.5591L35.0882 33.2101V23.7508L32.8579 22.6336L35.5766 17.9453L37.7903 19.0501Z" fill="#AEE0FF" stroke="#076993" stroke-width="0.413793" stroke-linecap="round" stroke-linejoin="round"/>
<path d="M35.0886 23.75V36.1183L32.3823 37.6824V28.4134L35.0886 23.75Z" fill="#AEE0FF" stroke="#076993" stroke-width="0.413793" stroke-linecap="round" stroke-linejoin="round"/>
</g>
<defs>
<clipPath id="clip0_11429_11388">
<rect width="48" height="48" fill="white" transform="translate(0.213867 0.0078125)"/>
</clipPath>
</defs>
</svg>
