<svg width="49" height="49" viewBox="0 0 49 49" fill="none" xmlns="http://www.w3.org/2000/svg">
<g clip-path="url(#clip0_11272_24867)">
<path fill-rule="evenodd" clip-rule="evenodd" d="M39.7239 22.4961L28.1842 47.4877L21.5822 40.811L16.6445 35.822H16.6563L16.6445 35.8102L23.6478 36.3335L28.1842 36.6719L39.716 22.4922H39.72L39.7121 22.5079L39.7239 22.4961Z" fill="#AEE0FF" stroke="#076993" stroke-width="0.393443" stroke-linecap="round" stroke-linejoin="round"/>
<path fill-rule="evenodd" clip-rule="evenodd" d="M28.1839 47.4867L20.315 43.5523L8.77539 31.8868H8.78719L8.77539 31.875L16.656 35.8212H16.6442L21.5819 40.81L28.1839 47.4867Z" fill="#AEE0FF" stroke="#076993" stroke-width="0.393443" stroke-linecap="round" stroke-linejoin="round"/>
<path fill-rule="evenodd" clip-rule="evenodd" d="M28.1839 5.1063L26.5157 9.1863L17.9229 30.2237L16.9984 32.486L16.6442 33.3515L14.5472 32.305L8.77539 29.4171L20.315 1.17188L28.1839 5.1063Z" fill="#AEE0FF" stroke="#076993" stroke-width="0.393443" stroke-linecap="round" stroke-linejoin="round"/>
<path fill-rule="evenodd" clip-rule="evenodd" d="M23.6475 36.3327L16.6442 35.8094L16.656 35.8212L8.77539 31.875L14.5472 32.3078L16.6442 33.3543L22.597 33.8776L24.3714 34.7668L28.1839 36.6711L23.6475 36.3327Z" fill="#AEE0FF" stroke="#076993" stroke-width="0.393443" stroke-linecap="round" stroke-linejoin="round"/>
<path fill-rule="evenodd" clip-rule="evenodd" d="M39.7154 22.4933L28.1836 36.673L24.3711 34.7687L22.5967 33.8796L24.6977 34.0645L28.1836 34.3714L38.3068 21.7891L39.7154 22.4933Z" fill="#AEE0FF" stroke="#076993" stroke-width="0.393443" stroke-linecap="round" stroke-linejoin="round"/>
<path fill-rule="evenodd" clip-rule="evenodd" d="M39.7239 20.0248L38.3075 21.7874L28.1842 34.3697L24.6983 34.0628L22.5973 33.8779L16.6445 33.3546L16.9987 32.489L17.9232 30.2268L26.516 9.18938L28.1842 5.10938L39.7239 20.0248Z" fill="#AEE0FF" stroke="#076993" stroke-width="0.393443" stroke-linecap="round" stroke-linejoin="round"/>
<path d="M39.7237 22.4961L39.7197 22.4922L39.7237 22.4961Z" fill="#AEE0FF"/>
<path d="M39.7237 22.4961L39.7197 22.4922" stroke="#076993" stroke-width="0.393443" stroke-linecap="round" stroke-linejoin="round"/>
</g>
<defs>
<clipPath id="clip0_11272_24867">
<rect width="48" height="48" fill="white" transform="translate(0.182617 0.390625)"/>
</clipPath>
</defs>
</svg>
