<svg width="49" height="48" viewBox="0 0 49 48" fill="none" xmlns="http://www.w3.org/2000/svg">
<path d="M30.9181 9.18664L30.8149 9.13281L30.9181 9.18664Z" fill="#AEE0FF"/>
<path d="M30.9181 9.18664L30.8149 9.13281" stroke="#076993" stroke-width="0.448598" stroke-linecap="round" stroke-linejoin="round"/>
<path d="M29.98 15.0718L30.0697 15.1211C30.0697 15.0807 30.0742 15.0404 30.0787 15C30.0473 15.0269 30.0159 15.0538 29.98 15.0718Z" fill="#AEE0FF" stroke="#076993" stroke-width="0.448598" stroke-linecap="round" stroke-linejoin="round"/>
<path d="M42.2041 9.07696C42.2041 10.5349 41.76 12.0287 40.8718 13.5585C40.6295 13.9756 40.3738 14.3614 40.1047 14.7203C39.3824 15.6758 38.5615 16.4205 37.6419 16.9543C36.4352 17.6497 35.3989 17.7842 34.5376 17.3581C34.4928 17.3356 34.4479 17.3132 34.4075 17.2908C33.5193 16.7839 33.0752 15.8059 33.0752 14.348C33.0752 13.5046 33.2232 12.6522 33.5238 11.782C33.7391 11.1494 34.0352 10.5125 34.4075 9.87102C35.2958 8.3413 36.3723 7.2063 37.6419 6.47509C38.8127 5.7977 39.8221 5.65415 40.6654 6.03546L40.8718 6.13864C41.76 6.64107 42.2041 7.6235 42.2041 9.07696Z" fill="#AEE0FF" stroke="#076993" stroke-width="0.448598" stroke-linecap="round" stroke-linejoin="round"/>
<path d="M29.98 15.0718L30.0697 15.1211C30.0697 15.0807 30.0742 15.0404 30.0787 15C30.0473 15.0269 30.0159 15.0538 29.98 15.0718Z" fill="#AEE0FF" stroke="#076993" stroke-width="0.448598" stroke-linecap="round" stroke-linejoin="round"/>
<path d="M43.7254 18.723C43.7254 21.1364 43.3261 23.6307 42.5276 26.2011C41.7291 28.7716 40.6479 31.2389 39.2752 33.603C37.907 35.9671 36.2965 38.1383 34.4438 40.1256C32.5911 42.1084 30.6128 43.7099 28.5089 44.9256C26.405 46.1413 24.4266 46.8276 22.5739 46.9757C20.7257 47.1282 19.1152 46.8142 17.7425 46.0336C16.3788 45.253 15.2932 44.0374 14.4947 42.3776C14.4947 42.3731 14.4902 42.3731 14.4902 42.3686C13.6917 40.7043 13.2925 38.6677 13.2925 36.2497C13.2925 33.8318 13.6917 31.3331 14.4902 28.7492C15.2887 26.1607 16.3743 23.689 17.7425 21.3249C18.9851 19.1895 20.4162 17.2067 22.0401 15.3854C22.2106 15.1925 22.381 15.0041 22.556 14.8157C23.3455 13.9679 24.1576 13.1873 24.9964 12.4875C26.109 11.5364 27.2708 10.72 28.4731 10.0247C29.3837 9.49533 30.0296 9.19477 30.4109 9.12299C30.559 9.09159 30.6891 9.09607 30.7968 9.12748H30.8148C30.9807 9.18579 31.0974 9.31589 31.1736 9.51327C31.2454 9.65682 31.2813 9.82729 31.2858 10.0247C31.2858 10.1054 31.2813 10.1951 31.2679 10.2849C31.232 10.5989 31.1332 10.9443 30.9807 11.3256C30.6532 12.1286 30.411 12.9181 30.2585 13.7077C30.1733 14.1338 30.1149 14.569 30.079 15.0041C30.0476 15.031 30.0162 15.0579 29.9803 15.0759L30.07 15.1252C30.0431 15.4527 30.0297 15.7802 30.0297 16.1077C30.0297 18.5256 30.7744 20.154 32.2592 21.0019C32.6899 21.2486 33.143 21.4056 33.6275 21.4774C34.8073 21.6523 36.1486 21.3069 37.6424 20.4456C38.3018 20.0643 38.9389 19.6067 39.5624 19.0774C40.1815 18.5436 40.7736 17.9244 41.3299 17.2246C41.5856 16.933 41.8368 16.6908 42.0925 16.5024C42.3437 16.3095 42.5725 16.2153 42.7743 16.2153C42.9 16.1929 43.0166 16.2019 43.1153 16.2288L43.1422 16.2422L43.2409 16.2916H43.2454C43.362 16.3679 43.4517 16.489 43.519 16.6595C43.658 17.0184 43.7254 17.7047 43.7254 18.723Z" fill="#AEE0FF" stroke="#076993" stroke-width="0.448598" stroke-linecap="round" stroke-linejoin="round"/>
<path d="M30.7966 9.12841C30.6889 9.09701 30.5588 9.09252 30.4107 9.12392C30.0294 9.1957 29.3835 9.49626 28.4729 10.0256C27.2706 10.7209 26.1088 11.5374 24.9962 12.4884C24.1574 13.1882 23.3453 13.9687 22.5558 14.8166C22.3808 15.005 22.2104 15.1934 22.0399 15.3863C20.416 17.2076 18.9849 19.1904 17.7423 21.3257C16.3741 23.6899 15.2885 26.1617 14.49 28.7501C13.6915 31.334 13.2923 33.8371 13.2923 36.2506C13.2923 38.6641 13.6915 40.7052 14.49 42.3695C14.49 42.374 14.4945 42.374 14.4945 42.3785C15.293 44.0383 16.3786 45.254 17.7423 46.0345L9.37601 41.8491L8.77036 41.5486C7.40215 40.768 6.31654 39.5478 5.51803 37.8835C4.71953 36.2192 4.32031 34.1826 4.32031 31.7646C4.32031 29.3467 4.71953 26.848 5.51803 24.2641C6.31654 21.6757 7.40215 19.2039 8.77036 16.8398C10.1431 14.4801 11.7446 12.3089 13.5838 10.3306C15.4231 8.35229 17.3925 6.75533 19.5009 5.53962C20.4116 5.01028 21.0575 4.70972 21.4388 4.63794C21.6272 4.60205 21.7887 4.61098 21.9143 4.67827L21.9278 4.68724L24.9962 6.22149L30.7966 9.12841Z" fill="#AEE0FF" stroke="#076993" stroke-width="0.448598" stroke-linecap="round" stroke-linejoin="round"/>
<path d="M43.1154 16.226C43.0167 16.1991 42.9001 16.1901 42.7745 16.2125C42.5726 16.2125 42.3438 16.3067 42.0925 16.4996C41.8368 16.6881 41.5857 16.9303 41.33 17.2219C40.7737 17.9217 40.1816 18.5408 39.5625 19.0746C38.939 19.6039 38.3019 20.0616 37.6425 20.4429C36.1487 21.3042 34.8074 21.6496 33.6276 21.4746C33.1431 21.4029 32.69 21.2459 32.2593 20.9991C30.7745 20.1513 30.0298 18.5228 30.0298 16.1049C30.0298 15.7774 30.0432 15.45 30.0701 15.1225L34.4081 17.2892C34.4485 17.3116 34.4934 17.3341 34.5382 17.3565C35.3995 17.7827 36.4358 17.6481 37.6425 16.9527C38.5621 16.4189 39.3831 15.6743 40.1053 14.7188L43.1154 16.226Z" fill="#AEE0FF" stroke="#076993" stroke-width="0.448598" stroke-linecap="round" stroke-linejoin="round"/>
<path d="M40.6656 6.03008C39.8223 5.64877 38.8129 5.79232 37.6421 6.4697C36.3725 7.20092 35.2959 8.33587 34.4077 9.86559C34.0353 10.5071 33.7393 11.144 33.524 11.7766C33.2234 12.6469 33.0754 13.4992 33.0754 14.3426C33.0754 15.8005 33.5195 16.7784 34.4077 17.2854L30.0697 15.1187C30.0697 15.0783 30.0742 15.0379 30.0787 14.9976C30.1146 14.5624 30.1729 14.1272 30.2581 13.7011C30.4107 12.9115 30.6529 12.122 30.9803 11.319C31.1329 10.9377 31.2316 10.5923 31.2675 10.2783C31.281 10.1885 31.2855 10.0989 31.2855 10.0181C31.281 9.82073 31.2451 9.65026 31.1733 9.50671C31.0971 9.30933 30.9804 9.17923 30.8144 9.1254H30.7965L24.9961 6.214C25.1262 5.93587 25.2742 5.65774 25.4357 5.37961C26.3239 3.8499 27.4006 2.71491 28.6701 1.9837C29.9352 1.25248 31.0162 1.14033 31.9 1.64725L40.6656 6.03008Z" fill="#AEE0FF" stroke="#076993" stroke-width="0.448598" stroke-linecap="round" stroke-linejoin="round"/>
</svg>
