<svg width="49" height="48" viewBox="0 0 49 48" fill="none" xmlns="http://www.w3.org/2000/svg">
<path d="M41.5395 4.66406V16.5751C41.1137 16.4706 40.6646 16.4163 40.1924 16.4163C39.7201 16.4163 39.2247 16.4744 38.706 16.5866V12.8047L35.195 14.8331L32.6479 16.3041L23.6208 21.5144L22.7499 22.0176L19.7189 23.7673L16.0337 25.8963V32.3996L18.0698 31.2228L21.0466 29.5041L27.4221 25.8228L28.7846 25.037C28.5369 25.4589 28.3008 25.8808 28.0841 26.3144C27.4879 27.4834 26.9963 28.6912 26.6053 29.9338C26.1447 31.4125 25.8815 32.8486 25.8234 34.2499C25.8118 34.4628 25.8079 34.6718 25.8079 34.8847C25.8079 34.997 25.8079 35.1092 25.8079 35.2176C25.8273 35.957 25.9124 36.646 26.0556 37.2808C26.2182 38.0125 26.4543 38.655 26.764 39.2124L13.1924 47.0434V21.0267L30.9602 10.7686L33.7937 9.13503L41.5357 4.66406H41.5395Z" fill="#AEE0FF" stroke="#076993" stroke-width="0.387097" stroke-linecap="round" stroke-linejoin="round"/>
<path d="M40.9003 20.4132L40.4668 20.1964C39.1817 19.6661 37.6643 19.9022 35.9068 20.9203C35.6707 21.0558 35.4384 21.2029 35.21 21.3539C33.6771 22.3913 32.3377 23.8197 31.1919 25.6429C31.1687 25.6816 31.1416 25.7242 31.1184 25.7629C31.0293 25.9022 30.9442 26.0455 30.8591 26.1926C30.6036 26.63 30.3713 27.0635 30.1662 27.4971C29.2874 29.3319 28.8268 31.1397 28.7881 32.9164C28.7842 32.9977 28.7842 33.079 28.7842 33.1603C28.7842 35.4364 29.4771 36.9616 30.8591 37.7358C32.241 38.51 33.921 38.3242 35.9068 37.1784C37.8655 36.0481 39.53 34.2945 40.9003 31.9177C42.2707 29.5409 42.9558 27.23 42.9558 24.981C42.9558 22.7319 42.2707 21.2067 40.9003 20.4132ZM38.2449 31.5616L35.1635 29.8042V24.6016L36.5803 23.7848V28.337L39.2358 29.8506L38.2449 31.5616Z" fill="#AEE0FF" stroke="#076993" stroke-width="0.387097" stroke-linecap="round" stroke-linejoin="round"/>
<path d="M39.2358 29.8548L38.2449 31.5657L35.1636 29.8083V27.6328L36.5804 28.3412L39.2358 29.8548Z" fill="#AEE0FF" stroke="#076993" stroke-width="0.387097" stroke-linecap="round" stroke-linejoin="round"/>
<path d="M36.5804 23.7891V28.3413L35.1636 27.6329V24.6058L36.5804 23.7891Z" fill="#AEE0FF" stroke="#076993" stroke-width="0.387097" stroke-linecap="round" stroke-linejoin="round"/>
<path d="M13.196 21.0194V47.0361L5.4541 43.1652V17.1484L11.4929 20.1678L13.196 21.0194Z" fill="#AEE0FF" stroke="#076993" stroke-width="0.387097" stroke-linecap="round" stroke-linejoin="round"/>
<path d="M41.5393 4.66001L33.7973 9.13098L30.9638 10.7646L13.196 21.0226L11.4929 20.171L5.4541 17.1517L33.7973 0.789062L41.5393 4.66001Z" fill="#AEE0FF" stroke="#076993" stroke-width="0.387097" stroke-linecap="round" stroke-linejoin="round"/>
<path d="M38.7058 12.8047V16.5866L35.1948 14.8331L38.7058 12.8047Z" fill="#AEE0FF" stroke="#076993" stroke-width="0.387097" stroke-linecap="round" stroke-linejoin="round"/>
<path d="M40.467 20.1949C39.1819 19.6646 37.6644 19.9007 35.907 20.9188C35.6709 21.0543 35.4386 21.2014 35.2102 21.3524C33.6773 22.3898 32.3379 23.8182 31.1921 25.6414C31.1689 25.6801 31.1418 25.7227 31.1186 25.7614C31.0295 25.9007 30.9444 26.044 30.8592 26.1911C30.6038 26.6285 30.3715 27.062 30.1663 27.4956C29.2876 29.3304 28.8269 31.1382 28.7882 32.9149C28.7844 32.9962 28.7844 33.0775 28.7844 33.1588C28.7844 35.4349 29.4773 36.9601 30.8592 37.7343L25.8115 35.2104C25.8115 35.102 25.8115 34.9898 25.8115 34.8775C25.8115 34.6646 25.8115 34.4555 25.827 34.2426C25.885 32.8414 26.1483 31.4053 26.6089 29.9266C26.9999 28.684 27.4915 27.4762 28.0876 26.3072C28.3044 25.8736 28.5405 25.4517 28.7882 25.0298L27.4257 24.3485L23.1792 22.2233C23.3224 21.9756 23.4735 21.7395 23.6244 21.5072L32.6515 16.2969C32.8257 16.3627 32.996 16.444 33.1625 16.5407L40.4709 20.1949H40.467Z" fill="#AEE0FF" stroke="#076993" stroke-width="0.387097" stroke-linecap="round" stroke-linejoin="round"/>
<path d="M28.7846 25.035L27.422 25.8208L21.0466 29.5021L18.0698 31.2208L16.0337 32.3976V25.8943L19.7189 23.7653L22.7499 22.0156L23.1756 22.2286L27.422 24.3537L28.7846 25.035Z" fill="#AEE0FF" stroke="#076993" stroke-width="0.387097" stroke-linecap="round" stroke-linejoin="round"/>
</svg>
