<svg width="67" height="67" viewBox="0 0 67 67" fill="none" xmlns="http://www.w3.org/2000/svg">
<path d="M57.4651 17.9688V29.3366L53.4998 31.6281V27.9902L51.863 30.8098L39.8246 51.5759L32.7916 48.7037L25.3574 61.5234L19.8081 64.7231L32.591 42.6739L39.6292 45.5515L49.0012 29.3788L50.7278 26.4062L47.5545 28.2384V23.687L57.4651 17.9688Z" fill="#C2C2C2" stroke="black" stroke-width="0.384" stroke-linecap="round" stroke-linejoin="round"/>
<path d="M45.5742 6.52344V29.6075L39.6289 39.8614V9.95544L45.5742 6.52344Z" fill="#C2C2C2" stroke="black" stroke-width="0.384" stroke-linecap="round" stroke-linejoin="round"/>
<path d="M32.5909 42.6691L19.8081 64.7182L9.24805 59.4382L11.7508 55.1191L14.4225 56.455L19.8081 59.1478L25.7533 48.8942V40.1875L29.7186 42.1675L30.1516 41.4494L32.5909 42.6691Z" fill="#C2C2C2" stroke="black" stroke-width="0.384" stroke-linecap="round" stroke-linejoin="round"/>
<path d="M19.8081 39.5925V59.1495L14.4225 56.4567L11.7508 55.1208L9.24805 53.8695V34.3125L19.8081 39.5925Z" fill="#C2C2C2" stroke="black" stroke-width="0.384" stroke-linecap="round" stroke-linejoin="round"/>
<path d="M29.7187 24.7722V42.1698L25.7534 40.1898V36.1612L21.0331 33.801L19.1587 32.8665V19.4922L25.104 22.4648L29.0693 24.4501L29.7187 24.7722Z" fill="#C2C2C2" stroke="black" stroke-width="0.384" stroke-linecap="round" stroke-linejoin="round"/>
<path d="M45.5741 6.5222L39.6288 9.9542L29.0688 4.67419L35.0141 1.24219L45.5741 6.5222Z" fill="#C2C2C2" stroke="black" stroke-width="0.384" stroke-linecap="round" stroke-linejoin="round"/>
<path d="M35.664 21.3438V38.7414L34.0959 37.9652L32.6914 37.2736L30.1517 41.4553L29.7188 42.1734V24.7757L35.0146 21.7187L35.664 21.3438Z" fill="#C2C2C2" stroke="black" stroke-width="0.384" stroke-linecap="round" stroke-linejoin="round"/>
<path d="M35.664 21.3425L35.0145 21.7174L29.7187 24.7745L29.0693 24.4524L25.104 22.4671L19.1587 19.4945L25.104 16.0625L29.0693 18.0478L35.0145 21.0204L35.664 21.3425Z" fill="#C2C2C2" stroke="black" stroke-width="0.384" stroke-linecap="round" stroke-linejoin="round"/>
<path d="M50.728 26.4062L49.0015 29.3789L39.6295 45.5515L32.5912 42.6739L30.1519 41.4543L32.6915 37.2725L34.096 37.9642L35.6642 38.7404V37.885L39.6295 39.865L45.5747 29.6112V27.2511L47.5547 28.2385L50.728 26.4062Z" fill="#C2C2C2" stroke="black" stroke-width="0.384" stroke-linecap="round" stroke-linejoin="round"/>
<path d="M39.6288 9.9597V39.8656L35.6636 37.8856V21.3433L35.0141 21.0212L29.0688 18.0486V4.67969L39.6288 9.9597Z" fill="#C2C2C2" stroke="black" stroke-width="0.384" stroke-linecap="round" stroke-linejoin="round"/>
<path d="M47.5552 23.6827V28.234L45.5752 27.2467V22.6953L46.9058 23.3606L47.5552 23.6827Z" fill="#C2C2C2" stroke="black" stroke-width="0.384" stroke-linecap="round" stroke-linejoin="round"/>
<path d="M57.4657 17.9675L47.5552 23.6858L46.9058 23.3637L45.5752 22.6984V13.4532L46.9058 12.6875L57.4657 17.9675Z" fill="#C2C2C2" stroke="black" stroke-width="0.384" stroke-linecap="round" stroke-linejoin="round"/>
<path d="M53.5006 27.9844V31.6223L51.8638 30.8039L53.5006 27.9844Z" fill="#C2C2C2" stroke="black" stroke-width="0.384" stroke-linecap="round" stroke-linejoin="round"/>
<path d="M25.7534 36.1641V48.8994L19.8081 59.1531V39.5961L21.2284 38.7723L22.0099 38.3235L22.8811 37.822L22.9603 37.7744L25.7534 36.1641Z" fill="#C2C2C2" stroke="black" stroke-width="0.384" stroke-linecap="round" stroke-linejoin="round"/>
<path d="M25.7533 36.1628L22.9602 37.7732L22.881 37.8207L22.0098 38.3223L21.2284 38.7711L19.8081 39.5948L9.24805 34.3148L15.1933 30.8828L19.1586 32.8681L21.033 33.8026L25.7533 36.1628Z" fill="#C2C2C2" stroke="black" stroke-width="0.384" stroke-linecap="round" stroke-linejoin="round"/>
</svg>
