<svg width="61" height="62" viewBox="0 0 61 62" fill="none" xmlns="http://www.w3.org/2000/svg">
<path d="M43.8064 12.853L37.9165 16.2516L36.3582 17.1537L35.3996 18.8095L17.2432 50.227L24.963 54.625L34.9024 60.2893L54.0585 27.2469V6.9375L43.8064 12.853ZM47.979 21.7467C47.4664 22.6335 46.8359 23.2947 46.0977 23.7202C45.3595 24.1457 44.7342 24.2123 44.2216 23.915C43.8115 23.6843 43.5603 23.2793 43.4783 22.695C43.4527 22.5412 43.4424 22.3772 43.4424 22.2029C43.4424 21.6236 43.5654 21.0393 43.8115 20.4395C43.9191 20.1627 44.0575 19.8808 44.2216 19.5988C44.7342 18.712 45.3595 18.0508 46.0977 17.6253C46.8359 17.1999 47.4664 17.1332 47.979 17.4305C48.4967 17.7227 48.753 18.2917 48.753 19.1374C48.753 19.9832 48.4967 20.8547 47.979 21.7467Z" fill="#C2C2C2" stroke="black" stroke-width="0.403361" stroke-linecap="round" stroke-linejoin="round"/>
<path d="M48.753 19.1395C48.753 19.9904 48.4967 20.8568 47.979 21.7487C47.4664 22.6355 46.8359 23.2967 46.0977 23.7222C45.3596 24.1476 44.7342 24.2143 44.2216 23.917C43.8115 23.6863 43.5603 23.2813 43.4783 22.697C43.4527 22.5432 43.4424 22.3792 43.4424 22.2049C43.4424 21.6257 43.5654 21.0412 43.8115 20.4415C43.9191 20.1647 44.0576 19.8828 44.2216 19.6008C44.7342 18.714 45.3596 18.0528 46.0977 17.6273C46.8359 17.2018 47.4664 17.1352 47.979 17.4325C48.4967 17.7247 48.753 18.2937 48.753 19.1395Z" fill="#C2C2C2" stroke="black" stroke-width="0.403361" stroke-linecap="round" stroke-linejoin="round"/>
<path d="M54.0581 6.93854L43.806 12.8541L37.9161 16.2526L36.3629 17.1548L26.1108 12.0287L43.806 1.8125L54.0581 6.93854Z" fill="#C2C2C2" stroke="black" stroke-width="0.403361" stroke-linecap="round" stroke-linejoin="round"/>
<path d="M36.3632 17.1573L35.4046 18.8131L17.2482 50.2306L6.99609 45.1045L26.1111 12.0312L36.3632 17.1573Z" fill="#C2C2C2" stroke="black" stroke-width="0.403361" stroke-linecap="round" stroke-linejoin="round"/>
<path d="M34.9074 60.2899L24.6553 55.1638L6.99609 45.1016L17.2482 50.2276L24.9629 54.6256L34.9074 60.2899Z" fill="#C2C2C2" stroke="black" stroke-width="0.403361" stroke-linecap="round" stroke-linejoin="round"/>
</svg>
