<svg width="64" height="65" viewBox="0 0 64 65" fill="none" xmlns="http://www.w3.org/2000/svg">
<path d="M35.0456 10.0755V16.2622L33.5841 15.5315L32.5761 15.0302V15.0249L29.9575 13.7182L24.3789 10.9289V4.74219L29.5095 7.30753L30.2721 7.69153L35.0456 10.0755Z" fill="#C2C2C2" stroke="black" stroke-width="0.4" stroke-linecap="round" stroke-linejoin="round"/>
<path d="M30.2986 46.8333L25.5519 51.7827L14.8853 46.4493L19.6319 41.5L26.2558 44.812L30.2986 46.8333Z" fill="#C2C2C2" stroke="black" stroke-width="0.4" stroke-linecap="round" stroke-linejoin="round"/>
<path d="M49.5469 37.1919C49.5469 40.6745 48.6455 43.8425 46.8482 46.6959C45.0562 49.5492 42.8322 51.9599 40.1762 53.9332V60.1146L35.0456 63.0799V56.7492C32.7789 57.4692 30.8216 57.4692 29.1789 56.7546L28.7736 56.5519C28.4109 56.3492 28.0695 56.0986 27.7548 55.7946C26.8108 54.8986 26.0802 53.5599 25.5522 51.7785L30.2989 46.8292C30.4002 47.1439 30.5069 47.4372 30.6296 47.7145C31.2482 49.1865 32.0909 50.1359 33.1522 50.5519C34.4162 51.0532 36.0748 50.7119 38.1281 49.5226C39.8775 48.5146 41.3655 47.2025 42.5815 45.5865C43.8029 43.9759 44.4108 42.2159 44.4108 40.3012C44.4108 38.5839 43.9415 37.4905 43.0029 37.0319C42.2242 36.6479 40.6028 36.6639 38.1335 37.0692C37.6108 37.1599 37.0562 37.2612 36.4589 37.3839C35.2589 37.6452 34.1869 37.8052 33.2322 37.8692C31.4935 37.9865 30.1602 37.7785 29.2375 37.2345L29.1948 37.2132C29.0881 37.1492 28.9816 37.0799 28.8856 37.0052C27.5896 36.0079 26.9069 34.2852 26.8429 31.8479C26.8375 31.7199 26.8375 31.5919 26.8375 31.4585C26.8375 29.3572 27.2268 27.3412 28.0055 25.4105C28.4108 24.4079 28.9175 23.4265 29.5309 22.4665C31.1362 19.9599 32.7682 18.0452 34.4429 16.7172C34.6455 16.5572 34.8429 16.4079 35.0456 16.2639V10.0772L36.7736 9.07985L37.2375 8.81319L40.1762 7.11719V13.2985C42.3149 12.4559 44.0801 12.3332 45.4721 12.9305C46.8588 13.5279 47.8775 14.6479 48.5175 16.2905L43.7709 21.3839C43.2589 20.1092 42.5281 19.3519 41.5895 19.1119C41.0401 18.9679 40.3735 19.0265 39.5895 19.2932C39.0295 19.4799 38.4161 19.7679 37.7388 20.1572C35.8615 21.2399 34.4269 22.5465 33.4402 24.0719C33.3282 24.2425 33.2269 24.4132 33.1309 24.5839C32.3575 25.9279 31.9682 27.2292 31.9682 28.4932C31.9682 30.1145 32.6081 31.0159 33.8935 31.2079C34.9281 31.3625 36.5709 31.1972 38.8322 30.7119C39.3762 30.5945 39.9522 30.4559 40.5655 30.3012C43.0029 29.7039 44.9495 29.7839 46.4108 30.5412C46.7201 30.7012 47.0082 30.8879 47.2695 31.1065C48.7842 32.3652 49.5469 34.3919 49.5469 37.1919Z" fill="#C2C2C2" stroke="black" stroke-width="0.4" stroke-linecap="round" stroke-linejoin="round"/>
<path d="M28.7733 56.552L27.5252 55.928L24.3786 54.3547L18.5119 51.4213C16.8639 50.7013 15.6533 49.0426 14.8853 46.4453L25.5519 51.7786C26.0799 53.56 26.8105 54.8987 27.7545 55.7947C28.0692 56.0987 28.4106 56.3494 28.7733 56.552Z" fill="#C2C2C2" stroke="black" stroke-width="0.4" stroke-linecap="round" stroke-linejoin="round"/>
<path d="M35.0456 56.754V63.0847L24.3789 57.7514V54.3594L27.5255 55.9327L28.7736 56.5567L29.1789 56.7594C30.8216 57.474 32.7789 57.474 35.0456 56.754Z" fill="#C2C2C2" stroke="black" stroke-width="0.4" stroke-linecap="round" stroke-linejoin="round"/>
<path d="M46.4109 30.5433C44.9495 29.7859 43.0029 29.7059 40.5655 30.3033C39.9522 30.4579 39.3762 30.5966 38.8322 30.7139C36.5709 31.1993 34.9282 31.3646 33.8935 31.2099C32.6082 31.0179 31.9683 30.1166 31.9683 28.4953C31.9683 27.2313 32.3576 25.9299 33.1309 24.5859C34.1496 24.6126 35.0403 24.8313 35.7923 25.2366L35.8243 25.2526L46.4109 30.5433Z" fill="#C2C2C2" stroke="black" stroke-width="0.4" stroke-linecap="round" stroke-linejoin="round"/>
<path d="M40.1761 7.12237L37.2375 8.81838L36.7736 9.08504L35.0456 10.0824L30.2721 7.69837L29.5095 7.31437L24.3789 4.74906L29.5095 1.78906L40.1761 7.12237Z" fill="#C2C2C2" stroke="black" stroke-width="0.4" stroke-linecap="round" stroke-linejoin="round"/>
<path d="M45.4722 12.9344C44.0802 12.3371 42.3149 12.4597 40.1763 13.3024V10.2891L45.4722 12.9344Z" fill="#C2C2C2" stroke="black" stroke-width="0.4" stroke-linecap="round" stroke-linejoin="round"/>
<path d="M43.7712 21.3875L39.5898 19.2969L43.7712 21.3875Z" fill="#C2C2C2"/>
<path d="M43.7712 21.3875L39.5898 19.2969" stroke="black" stroke-width="0.4" stroke-linecap="round" stroke-linejoin="round"/>
<path d="M35.0456 16.263C34.8429 16.407 34.6456 16.5564 34.4429 16.7164C32.7682 18.0444 31.1363 19.959 29.5309 22.4657C28.9176 23.4257 28.4109 24.407 28.0056 25.4097C27.2269 27.3404 26.8376 29.3564 26.8376 31.4577C26.8376 31.591 26.8376 31.719 26.8429 31.847C26.9069 34.2844 27.5896 36.007 28.8856 37.0044C28.9816 37.079 29.0882 37.1484 29.1948 37.2124L19.0562 32.135L19.0083 32.1137C18.7096 31.9964 18.4483 31.847 18.2189 31.671C16.8536 30.6204 16.1709 28.7697 16.1709 26.1244C16.1709 22.935 17.0669 19.9377 18.8643 17.1324C20.6616 14.327 22.4963 12.263 24.3789 10.9297L29.9576 13.719L32.5762 15.0257L33.5842 15.5324L35.0456 16.263Z" fill="#C2C2C2" stroke="black" stroke-width="0.4" stroke-linecap="round" stroke-linejoin="round"/>
<path d="M44.411 40.3048C44.411 42.2195 43.8031 43.9795 42.5817 45.5902C41.3657 47.2062 39.8777 48.5181 38.1283 49.5261C36.075 50.7155 34.4164 51.0568 33.1524 50.5555C32.0911 50.1395 31.2485 49.1901 30.6298 47.7181C30.5071 47.4408 30.4003 47.1475 30.299 46.8328L26.2563 44.8115C26.6403 44.6408 27.0457 44.4328 27.4617 44.1928C29.211 43.1848 30.6991 41.8728 31.9151 40.2568C32.4964 39.4942 32.9337 38.6995 33.2323 37.8728C34.187 37.8088 35.2591 37.6488 36.4591 37.3875C37.0564 37.2648 37.611 37.1635 38.1337 37.0728C40.603 36.6675 42.2244 36.6515 43.0031 37.0355C43.9417 37.4942 44.411 38.5875 44.411 40.3048Z" fill="#C2C2C2" stroke="black" stroke-width="0.4" stroke-linecap="round" stroke-linejoin="round"/>
</svg>
