<svg width="64" height="65" viewBox="0 0 64 65" fill="none" xmlns="http://www.w3.org/2000/svg">
<path d="M56.6892 36.2344V40.6486L18.7949 62.8751V58.4549L56.6892 36.2344Z" fill="#C2C2C2" stroke="black" stroke-width="0.448598" stroke-linecap="round" stroke-linejoin="round"/>
<path d="M51.0012 19.6875V35.1492L47.2153 37.3682V21.9125L51.0012 19.6875Z" fill="#C2C2C2" stroke="black" stroke-width="0.448598" stroke-linecap="round" stroke-linejoin="round"/>
<path d="M56.6892 7.52344V11.9376L46.9683 17.6378L43.1765 19.8629L39.2257 22.1836L35.5988 24.307L35.4399 24.4027L31.813 26.5261L27.8622 28.8468L24.2353 30.9761L24.0704 31.0718L20.4435 33.1952L18.7949 34.1642V29.744L19.7075 28.6733L24.0704 23.5773L24.6533 22.8954L25.7485 21.6154L33.332 12.7511L37.742 7.59521L42.1461 7.57727L56.6892 7.52344Z" fill="#C2C2C2" stroke="black" stroke-width="0.448598" stroke-linecap="round" stroke-linejoin="round"/>
<path d="M56.6895 36.2327L18.7952 58.4533L7.01953 52.472L16.7404 46.7718L20.7736 48.8234L24.4828 50.7075L28.2689 48.4824V40.1923L32.1429 42.1542L35.8464 44.0383L39.6382 41.8133V33.5232L43.5124 35.4851L47.2159 37.3692L51.0017 35.1501V33.3438L56.6895 36.2327Z" fill="#C2C2C2" stroke="black" stroke-width="0.448598" stroke-linecap="round" stroke-linejoin="round"/>
<path d="M28.2689 33.0234V48.4851L24.4829 50.7102V35.2485L27.8625 33.2627L28.2689 33.0234Z" fill="#C2C2C2" stroke="black" stroke-width="0.448598" stroke-linecap="round" stroke-linejoin="round"/>
<path d="M39.6378 26.3563L39.2257 26.5955L35.8461 28.5753L35.4398 28.372L31.813 26.5238L35.4398 24.4004L35.5989 24.3047L39.2257 26.1469L39.6378 26.3563Z" fill="#C2C2C2" stroke="black" stroke-width="0.448598" stroke-linecap="round" stroke-linejoin="round"/>
<path d="M47.2159 21.9188V37.3745L43.5124 35.4904L39.6381 33.5285V26.3629L39.226 26.1535L35.5991 24.3113L39.226 22.1879L43.1767 19.8672L47.2159 21.9188Z" fill="#C2C2C2" stroke="black" stroke-width="0.448598" stroke-linecap="round" stroke-linejoin="round"/>
<path d="M56.6892 7.52819L42.1461 7.58202L37.742 7.59997L25.9663 1.61865L44.9135 1.54688L56.6892 7.52819Z" fill="#C2C2C2" stroke="black" stroke-width="0.448598" stroke-linecap="round" stroke-linejoin="round"/>
<path d="M18.7952 29.7469V34.1671L16.4932 33.0008L12.7071 31.0748L7.01953 28.1858V23.7656L11.0587 25.8172L15.0917 27.8688L16.4932 28.5806L18.7952 29.7469Z" fill="#C2C2C2" stroke="black" stroke-width="0.448598" stroke-linecap="round" stroke-linejoin="round"/>
<path d="M51.0018 19.6922L47.2159 21.9173L43.1768 19.8657L46.9687 17.6406L51.0018 19.6922Z" fill="#C2C2C2" stroke="black" stroke-width="0.448598" stroke-linecap="round" stroke-linejoin="round"/>
<path d="M37.7423 7.59849L33.3323 12.7544L25.7488 21.6187L24.6536 22.8987L24.0707 23.5805L19.7079 28.6766L18.7952 29.7473L16.4932 28.5809L15.0917 27.8691L11.0587 25.8176L7.01953 23.766L25.9666 1.61719L37.7423 7.59849Z" fill="#C2C2C2" stroke="black" stroke-width="0.448598" stroke-linecap="round" stroke-linejoin="round"/>
<path d="M39.638 26.3594V41.8151L35.8462 44.0401V28.5784L39.2258 26.5986L39.638 26.3594Z" fill="#C2C2C2" stroke="black" stroke-width="0.448598" stroke-linecap="round" stroke-linejoin="round"/>
<path d="M35.8462 28.575V44.0367L32.1427 42.1526L28.2686 40.1907V33.0191L27.8622 32.8158L24.2354 30.9735L27.8622 28.8442L31.8131 26.5234L35.4399 28.3717L35.8462 28.575Z" fill="#C2C2C2" stroke="black" stroke-width="0.448598" stroke-linecap="round" stroke-linejoin="round"/>
<path d="M28.2683 33.0222L27.8619 33.2614L24.4823 35.2472L24.0702 35.0379L20.4434 33.1956L24.0702 31.0723L24.2351 30.9766L27.8619 32.8188L28.2683 33.0222Z" fill="#C2C2C2" stroke="black" stroke-width="0.448598" stroke-linecap="round" stroke-linejoin="round"/>
<path d="M24.4827 35.2453V50.7069L20.7735 48.8228L16.7403 46.7712L12.707 44.7256V31.0703L16.493 32.9963L18.7951 34.1627L20.4438 33.1937L24.0706 35.0359L24.4827 35.2453Z" fill="#C2C2C2" stroke="black" stroke-width="0.448598" stroke-linecap="round" stroke-linejoin="round"/>
<path d="M18.7952 58.4579V62.8781L7.01953 56.8967V52.4766L18.7952 58.4579Z" fill="#C2C2C2" stroke="black" stroke-width="0.448598" stroke-linecap="round" stroke-linejoin="round"/>
<path d="M56.6892 36.2344V40.6486L18.7949 62.8751V58.4549L56.6892 36.2344Z" fill="#C2C2C2" stroke="black" stroke-width="0.448598" stroke-linecap="round" stroke-linejoin="round"/>
<path d="M51.0012 19.6875V35.1492L47.2153 37.3682V21.9125L51.0012 19.6875Z" fill="#C2C2C2" stroke="black" stroke-width="0.448598" stroke-linecap="round" stroke-linejoin="round"/>
<path d="M56.6892 7.52344V11.9376L46.9683 17.6378L43.1765 19.8629L39.2257 22.1836L35.5988 24.307L35.4399 24.4027L31.813 26.5261L27.8622 28.8468L24.2353 30.9761L24.0704 31.0718L20.4435 33.1952L18.7949 34.1642V29.744L19.7075 28.6733L24.0704 23.5773L24.6533 22.8954L25.7485 21.6154L33.332 12.7511L37.742 7.59521L42.1461 7.57727L56.6892 7.52344Z" fill="#C2C2C2" stroke="black" stroke-width="0.448598" stroke-linecap="round" stroke-linejoin="round"/>
<path d="M56.6895 36.2327L18.7952 58.4533L7.01953 52.472L16.7404 46.7718L20.7736 48.8234L24.4828 50.7075L28.2689 48.4824V40.1923L32.1429 42.1542L35.8464 44.0383L39.6382 41.8133V33.5232L43.5124 35.4851L47.2159 37.3692L51.0017 35.1501V33.3438L56.6895 36.2327Z" fill="#C2C2C2" stroke="black" stroke-width="0.448598" stroke-linecap="round" stroke-linejoin="round"/>
<path d="M28.2689 33.0234V48.4851L24.4829 50.7102V35.2485L27.8625 33.2627L28.2689 33.0234Z" fill="#C2C2C2" stroke="black" stroke-width="0.448598" stroke-linecap="round" stroke-linejoin="round"/>
<path d="M39.6378 26.3563L39.2257 26.5955L35.8461 28.5753L35.4398 28.372L31.813 26.5238L35.4398 24.4004L35.5989 24.3047L39.2257 26.1469L39.6378 26.3563Z" fill="#C2C2C2" stroke="black" stroke-width="0.448598" stroke-linecap="round" stroke-linejoin="round"/>
<path d="M47.2159 21.9188V37.3745L43.5124 35.4904L39.6381 33.5285V26.3629L39.226 26.1535L35.5991 24.3113L39.226 22.1879L43.1767 19.8672L47.2159 21.9188Z" fill="#C2C2C2" stroke="black" stroke-width="0.448598" stroke-linecap="round" stroke-linejoin="round"/>
<path d="M56.6892 7.52819L42.1461 7.58202L37.742 7.59997L25.9663 1.61865L44.9135 1.54688L56.6892 7.52819Z" fill="#C2C2C2" stroke="black" stroke-width="0.448598" stroke-linecap="round" stroke-linejoin="round"/>
<path d="M18.7952 29.7469V34.1671L16.4932 33.0008L12.7071 31.0748L7.01953 28.1858V23.7656L11.0587 25.8172L15.0917 27.8688L16.4932 28.5806L18.7952 29.7469Z" fill="#C2C2C2" stroke="black" stroke-width="0.448598" stroke-linecap="round" stroke-linejoin="round"/>
<path d="M51.0018 19.6922L47.2159 21.9173L43.1768 19.8657L46.9687 17.6406L51.0018 19.6922Z" fill="#C2C2C2" stroke="black" stroke-width="0.448598" stroke-linecap="round" stroke-linejoin="round"/>
<path d="M37.7423 7.59849L33.3323 12.7544L25.7488 21.6187L24.6536 22.8987L24.0707 23.5805L19.7079 28.6766L18.7952 29.7473L16.4932 28.5809L15.0917 27.8691L11.0587 25.8176L7.01953 23.766L25.9666 1.61719L37.7423 7.59849Z" fill="#C2C2C2" stroke="black" stroke-width="0.448598" stroke-linecap="round" stroke-linejoin="round"/>
<path d="M39.638 26.3594V41.8151L35.8462 44.0401V28.5784L39.2258 26.5986L39.638 26.3594Z" fill="#C2C2C2" stroke="black" stroke-width="0.448598" stroke-linecap="round" stroke-linejoin="round"/>
<path d="M35.8462 28.575V44.0367L32.1427 42.1526L28.2686 40.1907V33.0191L27.8622 32.8158L24.2354 30.9735L27.8622 28.8442L31.8131 26.5234L35.4399 28.3717L35.8462 28.575Z" fill="#C2C2C2" stroke="black" stroke-width="0.448598" stroke-linecap="round" stroke-linejoin="round"/>
<path d="M28.2683 33.0222L27.8619 33.2614L24.4823 35.2472L24.0702 35.0379L20.4434 33.1956L24.0702 31.0723L24.2351 30.9766L27.8619 32.8188L28.2683 33.0222Z" fill="#C2C2C2" stroke="black" stroke-width="0.448598" stroke-linecap="round" stroke-linejoin="round"/>
<path d="M24.4827 35.2453V50.7069L20.7735 48.8228L16.7403 46.7712L12.707 44.7256V31.0703L16.493 32.9963L18.7951 34.1627L20.4438 33.1937L24.0706 35.0359L24.4827 35.2453Z" fill="#C2C2C2" stroke="black" stroke-width="0.448598" stroke-linecap="round" stroke-linejoin="round"/>
<path d="M18.7952 58.4579V62.8781L7.01953 56.8967V52.4766L18.7952 58.4579Z" fill="#C2C2C2" stroke="black" stroke-width="0.448598" stroke-linecap="round" stroke-linejoin="round"/>
</svg>
